<mxfile host="app.diagrams.net" agent="Mozilla/5.0 (Windows NT 10.0; Win64; x64) AppleWebKit/537.36 (KHTML, like Gecko) Chrome/127.0.0.0 Safari/537.36" version="24.7.6">
  <diagram name="Page-1" id="wigwcr8wJq3LkUBq2ugq">
    <mxGraphModel grid="1" page="1" gridSize="10" guides="1" tooltips="1" connect="1" arrows="1" fold="1" pageScale="1" pageWidth="850" pageHeight="1100" math="0" shadow="0">
      <root>
        <mxCell id="0" />
        <mxCell id="1" parent="0" />
        <mxCell id="I-qkzdC7zNpdRcwB98D2-7" style="edgeStyle=orthogonalEdgeStyle;rounded=0;orthogonalLoop=1;jettySize=auto;html=1;exitX=0.875;exitY=0.5;exitDx=0;exitDy=0;exitPerimeter=0;" edge="1" parent="1" source="I-qkzdC7zNpdRcwB98D2-2">
          <mxGeometry relative="1" as="geometry">
            <mxPoint x="670" y="365" as="targetPoint" />
          </mxGeometry>
        </mxCell>
        <mxCell id="I-qkzdC7zNpdRcwB98D2-2" value="AWS API&lt;div&gt;Gateway&lt;/div&gt;&lt;div&gt;&lt;br&gt;&lt;/div&gt;" style="ellipse;shape=cloud;whiteSpace=wrap;html=1;align=center;" vertex="1" parent="1">
          <mxGeometry x="350" y="320" width="140" height="90" as="geometry" />
        </mxCell>
        <mxCell id="I-qkzdC7zNpdRcwB98D2-6" style="edgeStyle=orthogonalEdgeStyle;rounded=0;orthogonalLoop=1;jettySize=auto;html=1;exitX=1;exitY=0.5;exitDx=0;exitDy=0;entryX=0;entryY=0.5;entryDx=0;entryDy=0;" edge="1" parent="1" source="I-qkzdC7zNpdRcwB98D2-3" target="I-qkzdC7zNpdRcwB98D2-5">
          <mxGeometry relative="1" as="geometry" />
        </mxCell>
        <mxCell id="I-qkzdC7zNpdRcwB98D2-3" value="Application&lt;br&gt;Socket" style="rounded=0;whiteSpace=wrap;html=1;" vertex="1" parent="1">
          <mxGeometry x="30" y="335" width="120" height="60" as="geometry" />
        </mxCell>
        <mxCell id="I-qkzdC7zNpdRcwB98D2-4" value="" style="html=1;shadow=0;dashed=0;align=center;verticalAlign=middle;shape=mxgraph.arrows2.arrow;dy=0.6;dx=40;direction=south;notch=0;" vertex="1" parent="1">
          <mxGeometry x="398" y="420" width="55" height="80" as="geometry" />
        </mxCell>
        <mxCell id="I-qkzdC7zNpdRcwB98D2-5" value="AWS Socket" style="rounded=0;whiteSpace=wrap;html=1;" vertex="1" parent="1">
          <mxGeometry x="350" y="520" width="120" height="60" as="geometry" />
        </mxCell>
        <mxCell id="I-qkzdC7zNpdRcwB98D2-9" style="edgeStyle=orthogonalEdgeStyle;rounded=0;orthogonalLoop=1;jettySize=auto;html=1;exitX=0.4;exitY=0.1;exitDx=0;exitDy=0;exitPerimeter=0;" edge="1" parent="1" source="I-qkzdC7zNpdRcwB98D2-8">
          <mxGeometry relative="1" as="geometry">
            <mxPoint x="578.3333333333335" y="370" as="targetPoint" />
          </mxGeometry>
        </mxCell>
        <mxCell id="I-qkzdC7zNpdRcwB98D2-8" value="AWS LAMDA" style="ellipse;shape=cloud;whiteSpace=wrap;html=1;" vertex="1" parent="1">
          <mxGeometry x="530" y="430" width="120" height="70" as="geometry" />
        </mxCell>
        <mxCell id="I-qkzdC7zNpdRcwB98D2-11" value="AWS EC2/ECS" style="ellipse;shape=cloud;whiteSpace=wrap;html=1;" vertex="1" parent="1">
          <mxGeometry x="680" y="320" width="140" height="85" as="geometry" />
        </mxCell>
        <mxCell id="I-qkzdC7zNpdRcwB98D2-13" style="edgeStyle=orthogonalEdgeStyle;rounded=0;orthogonalLoop=1;jettySize=auto;html=1;exitX=0.5;exitY=0;exitDx=0;exitDy=0;entryX=0.5;entryY=0.952;entryDx=0;entryDy=0;entryPerimeter=0;" edge="1" parent="1" target="I-qkzdC7zNpdRcwB98D2-8">
          <mxGeometry relative="1" as="geometry">
            <mxPoint x="590" y="550" as="sourcePoint" />
          </mxGeometry>
        </mxCell>
        <mxCell id="I-qkzdC7zNpdRcwB98D2-14" value="AWS CloudWatch" style="ellipse;shape=cloud;whiteSpace=wrap;html=1;" vertex="1" parent="1">
          <mxGeometry x="510" y="540" width="160" height="100" as="geometry" />
        </mxCell>
      </root>
    </mxGraphModel>
  </diagram>
</mxfile>
